<svg xmlns="http://www.w3.org/2000/svg" xmlns:xlink="http://www.w3.org/1999/xlink" zoomAndPan="magnify" preserveAspectRatio="xMidYMid meet" version="1.0" viewBox="465.6 174.96 459.75 459.75"><defs><clipPath id="id1"><path d="M 465.597656 174.964844 L 925.347656 174.964844 L 925.347656 634.714844 L 465.597656 634.714844 Z M 465.597656 174.964844 " clip-rule="nonzero"/></clipPath></defs><g clip-path="url(#id1)"><path fill="#e7286c" d="M 925.347656 404.839844 C 925.347656 408.601562 925.253906 412.363281 925.070312 416.121094 C 924.886719 419.878906 924.609375 423.628906 924.238281 427.371094 C 923.871094 431.117188 923.410156 434.847656 922.859375 438.570312 C 922.304688 442.292969 921.664062 445.996094 920.929688 449.6875 C 920.195312 453.375 919.371094 457.046875 918.457031 460.695312 C 917.542969 464.34375 916.539062 467.96875 915.449219 471.570312 C 914.355469 475.167969 913.175781 478.742188 911.910156 482.28125 C 910.640625 485.824219 909.289062 489.335938 907.847656 492.808594 C 906.410156 496.285156 904.882812 499.722656 903.277344 503.125 C 901.667969 506.527344 899.976562 509.886719 898.203125 513.203125 C 896.429688 516.519531 894.574219 519.792969 892.640625 523.019531 C 890.707031 526.246094 888.695312 529.425781 886.605469 532.550781 C 884.515625 535.679688 882.351562 538.753906 880.109375 541.777344 C 877.867188 544.796875 875.554688 547.761719 873.167969 550.671875 C 870.78125 553.578125 868.324219 556.425781 865.796875 559.214844 C 863.269531 562.003906 860.675781 564.726562 858.015625 567.386719 C 855.355469 570.046875 852.632812 572.640625 849.847656 575.167969 C 847.058594 577.691406 844.210938 580.148438 841.300781 582.535156 C 838.394531 584.921875 835.429688 587.238281 832.40625 589.476562 C 829.386719 591.71875 826.3125 593.882812 823.183594 595.972656 C 820.054688 598.066406 816.878906 600.078125 813.652344 602.011719 C 810.421875 603.945312 807.152344 605.796875 803.832031 607.570312 C 800.515625 609.34375 797.15625 611.035156 793.753906 612.644531 C 790.355469 614.253906 786.917969 615.777344 783.441406 617.21875 C 779.964844 618.65625 776.457031 620.011719 772.914062 621.277344 C 769.371094 622.546875 765.800781 623.726562 762.199219 624.816406 C 758.601562 625.910156 754.976562 626.914062 751.328125 627.828125 C 747.675781 628.742188 744.007812 629.566406 740.316406 630.296875 C 736.628906 631.03125 732.921875 631.675781 729.199219 632.226562 C 725.480469 632.78125 721.746094 633.238281 718.003906 633.609375 C 714.257812 633.976562 710.507812 634.253906 706.75 634.4375 C 702.992188 634.625 699.234375 634.714844 695.472656 634.714844 C 691.710938 634.714844 687.949219 634.625 684.191406 634.4375 C 680.433594 634.253906 676.683594 633.976562 672.941406 633.609375 C 669.195312 633.238281 665.464844 632.78125 661.742188 632.226562 C 658.019531 631.675781 654.316406 631.03125 650.625 630.296875 C 646.933594 629.566406 643.265625 628.742188 639.617188 627.828125 C 635.96875 626.914062 632.34375 625.910156 628.742188 624.816406 C 625.140625 623.726562 621.570312 622.546875 618.027344 621.277344 C 614.488281 620.011719 610.976562 618.65625 607.503906 617.21875 C 604.027344 615.777344 600.589844 614.253906 597.1875 612.644531 C 593.785156 611.035156 590.425781 609.34375 587.109375 607.570312 C 583.792969 605.796875 580.519531 603.945312 577.292969 602.011719 C 574.066406 600.078125 570.886719 598.066406 567.757812 595.972656 C 564.632812 593.882812 561.558594 591.71875 558.535156 589.476562 C 555.511719 587.238281 552.546875 584.921875 549.640625 582.535156 C 546.730469 580.148438 543.882812 577.691406 541.097656 575.167969 C 538.308594 572.640625 535.585938 570.046875 532.925781 567.386719 C 530.265625 564.726562 527.671875 562.003906 525.144531 559.214844 C 522.617188 556.425781 520.164062 553.578125 517.777344 550.671875 C 515.390625 547.761719 513.074219 544.796875 510.835938 541.777344 C 508.59375 538.753906 506.425781 535.679688 504.335938 532.550781 C 502.246094 529.425781 500.234375 526.246094 498.300781 523.019531 C 496.367188 519.792969 494.511719 516.519531 492.738281 513.203125 C 490.964844 509.886719 489.273438 506.527344 487.667969 503.125 C 486.058594 499.722656 484.535156 496.285156 483.09375 492.808594 C 481.65625 489.335938 480.300781 485.824219 479.035156 482.28125 C 477.765625 478.742188 476.585938 475.167969 475.496094 471.570312 C 474.402344 467.96875 473.398438 464.34375 472.484375 460.695312 C 471.570312 457.046875 470.746094 453.375 470.011719 449.6875 C 469.28125 445.996094 468.636719 442.292969 468.085938 438.570312 C 467.53125 434.847656 467.070312 431.117188 466.703125 427.371094 C 466.335938 423.628906 466.058594 419.878906 465.875 416.121094 C 465.6875 412.363281 465.597656 408.601562 465.597656 404.839844 C 465.597656 401.078125 465.6875 397.320312 465.875 393.5625 C 466.058594 389.804688 466.335938 386.054688 466.703125 382.308594 C 467.070312 378.566406 467.53125 374.832031 468.085938 371.109375 C 468.636719 367.390625 469.28125 363.683594 470.011719 359.996094 C 470.746094 356.304688 471.570312 352.636719 472.484375 348.984375 C 473.398438 345.335938 474.402344 341.710938 475.496094 338.113281 C 476.585938 334.511719 477.765625 330.941406 479.035156 327.398438 C 480.300781 323.855469 481.65625 320.347656 483.09375 316.871094 C 484.535156 313.394531 486.058594 309.957031 487.667969 306.554688 C 489.273438 303.15625 490.964844 299.796875 492.738281 296.476562 C 494.511719 293.160156 496.367188 289.886719 498.300781 286.660156 C 500.234375 283.433594 502.246094 280.257812 504.335938 277.128906 C 506.425781 274 508.59375 270.925781 510.835938 267.902344 C 513.074219 264.882812 515.390625 261.917969 517.777344 259.007812 C 520.164062 256.101562 522.617188 253.253906 525.144531 250.464844 C 527.671875 247.679688 530.265625 244.953125 532.925781 242.292969 C 535.585938 239.632812 538.308594 237.039062 541.097656 234.515625 C 543.882812 231.988281 546.730469 229.53125 549.640625 227.144531 C 552.546875 224.757812 555.511719 222.445312 558.535156 220.203125 C 561.558594 217.960938 564.632812 215.796875 567.757812 213.707031 C 570.886719 211.617188 574.066406 209.605469 577.292969 207.671875 C 580.519531 205.734375 583.792969 203.882812 587.109375 202.109375 C 590.425781 200.335938 593.785156 198.644531 597.1875 197.035156 C 600.589844 195.425781 604.027344 193.902344 607.503906 192.464844 C 610.976562 191.023438 614.488281 189.671875 618.027344 188.402344 C 621.570312 187.136719 625.140625 185.957031 628.742188 184.863281 C 632.34375 183.773438 635.96875 182.769531 639.617188 181.855469 C 643.265625 180.941406 646.933594 180.117188 650.625 179.382812 C 654.316406 178.648438 658.019531 178.003906 661.742188 177.453125 C 665.464844 176.902344 669.195312 176.441406 672.941406 176.074219 C 676.683594 175.703125 680.433594 175.425781 684.191406 175.242188 C 687.949219 175.058594 691.710938 174.964844 695.472656 174.964844 C 699.234375 174.964844 702.992188 175.058594 706.75 175.242188 C 710.507812 175.425781 714.257812 175.703125 718.003906 176.074219 C 721.746094 176.441406 725.480469 176.902344 729.199219 177.453125 C 732.921875 178.003906 736.628906 178.648438 740.316406 179.382812 C 744.007812 180.117188 747.675781 180.941406 751.328125 181.855469 C 754.976562 182.769531 758.601562 183.773438 762.199219 184.863281 C 765.800781 185.957031 769.371094 187.136719 772.914062 188.402344 C 776.457031 189.671875 779.964844 191.023438 783.441406 192.464844 C 786.917969 193.902344 790.355469 195.425781 793.753906 197.035156 C 797.15625 198.644531 800.515625 200.335938 803.832031 202.109375 C 807.152344 203.882812 810.421875 205.734375 813.652344 207.671875 C 816.878906 209.605469 820.054688 211.617188 823.183594 213.707031 C 826.3125 215.796875 829.386719 217.960938 832.40625 220.203125 C 835.429688 222.445312 838.394531 224.757812 841.300781 227.144531 C 844.210938 229.53125 847.058594 231.988281 849.847656 234.515625 C 852.632812 237.039062 855.355469 239.632812 858.015625 242.292969 C 860.675781 244.953125 863.269531 247.679688 865.796875 250.464844 C 868.324219 253.253906 870.78125 256.101562 873.167969 259.007812 C 875.554688 261.917969 877.867188 264.882812 880.109375 267.902344 C 882.351562 270.925781 884.515625 274 886.605469 277.128906 C 888.695312 280.257812 890.707031 283.433594 892.640625 286.660156 C 894.574219 289.886719 896.429688 293.160156 898.203125 296.476562 C 899.976562 299.796875 901.667969 303.15625 903.277344 306.554688 C 904.882812 309.957031 906.410156 313.394531 907.847656 316.871094 C 909.289062 320.347656 910.640625 323.855469 911.910156 327.398438 C 913.175781 330.941406 914.355469 334.511719 915.449219 338.113281 C 916.539062 341.710938 917.542969 345.335938 918.457031 348.984375 C 919.371094 352.636719 920.195312 356.304688 920.929688 359.996094 C 921.664062 363.683594 922.304688 367.390625 922.859375 371.109375 C 923.410156 374.832031 923.871094 378.566406 924.238281 382.308594 C 924.609375 386.054688 924.886719 389.804688 925.070312 393.5625 C 925.253906 397.320312 925.347656 401.078125 925.347656 404.839844 Z M 925.347656 404.839844 " fill-opacity="1" fill-rule="nonzero"/></g><path fill="#fff6ea" d="M 906.546875 404.839844 C 906.546875 408.296875 906.460938 411.746094 906.289062 415.199219 C 906.121094 418.648438 905.867188 422.089844 905.527344 425.53125 C 905.191406 428.96875 904.765625 432.394531 904.261719 435.8125 C 903.753906 439.226562 903.164062 442.632812 902.488281 446.019531 C 901.816406 449.40625 901.058594 452.777344 900.21875 456.128906 C 899.378906 459.476562 898.460938 462.804688 897.457031 466.113281 C 896.453125 469.417969 895.371094 472.695312 894.207031 475.949219 C 893.042969 479.203125 891.800781 482.421875 890.476562 485.613281 C 889.15625 488.804688 887.757812 491.964844 886.28125 495.085938 C 884.804688 498.207031 883.25 501.292969 881.621094 504.339844 C 879.992188 507.386719 878.292969 510.390625 876.515625 513.355469 C 874.738281 516.316406 872.890625 519.234375 870.972656 522.105469 C 869.054688 524.980469 867.066406 527.800781 865.007812 530.578125 C 862.949219 533.351562 860.824219 536.074219 858.632812 538.746094 C 856.441406 541.414062 854.1875 544.03125 851.867188 546.589844 C 849.546875 549.148438 847.164062 551.648438 844.722656 554.09375 C 842.28125 556.535156 839.777344 558.917969 837.21875 561.234375 C 834.660156 563.554688 832.046875 565.8125 829.375 568.003906 C 826.703125 570.195312 823.980469 572.320312 821.207031 574.375 C 818.433594 576.433594 815.609375 578.421875 812.738281 580.34375 C 809.867188 582.261719 806.949219 584.109375 803.984375 585.882812 C 801.023438 587.660156 798.015625 589.363281 794.972656 590.992188 C 791.925781 592.621094 788.839844 594.171875 785.71875 595.648438 C 782.59375 597.125 779.4375 598.523438 776.246094 599.847656 C 773.054688 601.167969 769.832031 602.410156 766.578125 603.574219 C 763.328125 604.738281 760.046875 605.824219 756.742188 606.824219 C 753.4375 607.828125 750.109375 608.75 746.757812 609.589844 C 743.40625 610.429688 740.039062 611.183594 736.648438 611.859375 C 733.261719 612.53125 729.859375 613.121094 726.441406 613.628906 C 723.023438 614.136719 719.597656 614.558594 716.160156 614.898438 C 712.722656 615.238281 709.277344 615.492188 705.828125 615.660156 C 702.378906 615.828125 698.925781 615.914062 695.472656 615.914062 C 692.015625 615.914062 688.566406 615.828125 685.113281 615.660156 C 681.664062 615.492188 678.21875 615.238281 674.78125 614.898438 C 671.34375 614.558594 667.917969 614.136719 664.5 613.628906 C 661.082031 613.121094 657.679688 612.53125 654.292969 611.859375 C 650.90625 611.183594 647.535156 610.429688 644.183594 609.589844 C 640.832031 608.75 637.503906 607.828125 634.199219 606.824219 C 630.894531 605.824219 627.613281 604.738281 624.363281 603.574219 C 621.109375 602.410156 617.886719 601.167969 614.695312 599.847656 C 611.503906 598.523438 608.347656 597.125 605.226562 595.648438 C 602.101562 594.171875 599.019531 592.621094 595.972656 590.992188 C 592.925781 589.363281 589.921875 587.660156 586.957031 585.882812 C 583.996094 584.109375 581.078125 582.261719 578.203125 580.34375 C 575.332031 578.421875 572.507812 576.433594 569.734375 574.375 C 566.960938 572.320312 564.238281 570.195312 561.566406 568.003906 C 558.898438 565.8125 556.28125 563.554688 553.722656 561.234375 C 551.164062 558.917969 548.664062 556.535156 546.21875 554.09375 C 543.777344 551.648438 541.394531 549.148438 539.074219 546.589844 C 536.757812 544.03125 534.5 541.414062 532.308594 538.746094 C 530.117188 536.074219 527.992188 533.351562 525.933594 530.578125 C 523.878906 527.800781 521.890625 524.980469 519.96875 522.105469 C 518.050781 519.234375 516.203125 516.316406 514.425781 513.355469 C 512.652344 510.390625 510.949219 507.386719 509.320312 504.339844 C 507.691406 501.292969 506.140625 498.207031 504.664062 495.085938 C 503.1875 491.964844 501.785156 488.804688 500.464844 485.613281 C 499.144531 482.421875 497.898438 479.203125 496.734375 475.949219 C 495.574219 472.695312 494.488281 469.417969 493.488281 466.113281 C 492.484375 462.804688 491.5625 459.476562 490.722656 456.128906 C 489.882812 452.777344 489.128906 449.40625 488.453125 446.019531 C 487.78125 442.632812 487.1875 439.226562 486.683594 435.8125 C 486.175781 432.394531 485.753906 428.96875 485.414062 425.53125 C 485.074219 422.089844 484.820312 418.648438 484.652344 415.199219 C 484.480469 411.746094 484.398438 408.296875 484.398438 404.839844 C 484.398438 401.386719 484.480469 397.933594 484.652344 394.484375 C 484.820312 391.035156 485.074219 387.589844 485.414062 384.152344 C 485.753906 380.714844 486.175781 377.285156 486.683594 373.871094 C 487.1875 370.453125 487.78125 367.050781 488.453125 363.664062 C 489.128906 360.273438 489.882812 356.90625 490.722656 353.554688 C 491.5625 350.203125 492.484375 346.875 493.488281 343.570312 C 494.488281 340.261719 495.574219 336.984375 496.734375 333.730469 C 497.898438 330.480469 499.144531 327.257812 500.464844 324.066406 C 501.785156 320.875 503.1875 317.71875 504.664062 314.59375 C 506.140625 311.472656 507.691406 308.386719 509.320312 305.339844 C 510.949219 302.292969 512.652344 299.289062 514.425781 296.328125 C 516.203125 293.363281 518.050781 290.445312 519.96875 287.574219 C 521.890625 284.703125 523.878906 281.878906 525.933594 279.105469 C 527.992188 276.328125 530.117188 273.605469 532.308594 270.9375 C 534.5 268.265625 536.757812 265.652344 539.074219 263.09375 C 541.394531 260.53125 543.777344 258.03125 546.21875 255.589844 C 548.664062 253.144531 551.164062 250.765625 553.722656 248.445312 C 556.28125 246.125 558.898438 243.871094 561.566406 241.679688 C 564.238281 239.488281 566.960938 237.363281 569.734375 235.304688 C 572.507812 233.246094 575.332031 231.257812 578.203125 229.339844 C 581.078125 227.421875 583.996094 225.574219 586.957031 223.796875 C 589.921875 222.019531 592.925781 220.320312 595.972656 218.691406 C 599.019531 217.0625 602.101562 215.507812 605.226562 214.03125 C 608.347656 212.554688 611.503906 211.15625 614.695312 209.832031 C 617.886719 208.511719 621.109375 207.269531 624.363281 206.105469 C 627.613281 204.941406 630.894531 203.859375 634.199219 202.855469 C 637.503906 201.851562 640.832031 200.933594 644.183594 200.09375 C 647.535156 199.253906 650.90625 198.496094 654.292969 197.824219 C 657.679688 197.148438 661.082031 196.558594 664.5 196.050781 C 667.917969 195.542969 671.34375 195.121094 674.78125 194.785156 C 678.21875 194.445312 681.664062 194.191406 685.113281 194.019531 C 688.566406 193.851562 692.015625 193.765625 695.472656 193.765625 C 698.925781 193.765625 702.378906 193.851562 705.828125 194.019531 C 709.277344 194.191406 712.722656 194.445312 716.160156 194.785156 C 719.597656 195.121094 723.023438 195.542969 726.441406 196.050781 C 729.859375 196.558594 733.261719 197.148438 736.648438 197.824219 C 740.039062 198.496094 743.40625 199.253906 746.757812 200.09375 C 750.109375 200.933594 753.4375 201.851562 756.742188 202.855469 C 760.046875 203.859375 763.328125 204.941406 766.578125 206.105469 C 769.832031 207.269531 773.054688 208.511719 776.246094 209.832031 C 779.4375 211.15625 782.59375 212.554688 785.71875 214.03125 C 788.839844 215.507812 791.925781 217.0625 794.972656 218.691406 C 798.015625 220.320312 801.023438 222.019531 803.984375 223.796875 C 806.949219 225.574219 809.867188 227.421875 812.738281 229.339844 C 815.609375 231.257812 818.433594 233.246094 821.207031 235.304688 C 823.980469 237.363281 826.703125 239.488281 829.375 241.679688 C 832.046875 243.871094 834.660156 246.125 837.21875 248.445312 C 839.777344 250.765625 842.28125 253.144531 844.722656 255.589844 C 847.164062 258.03125 849.546875 260.53125 851.867188 263.09375 C 854.1875 265.652344 856.441406 268.265625 858.632812 270.9375 C 860.824219 273.605469 862.949219 276.328125 865.007812 279.105469 C 867.066406 281.878906 869.054688 284.703125 870.972656 287.574219 C 872.890625 290.445312 874.738281 293.363281 876.515625 296.328125 C 878.292969 299.289062 879.992188 302.292969 881.621094 305.339844 C 883.25 308.386719 884.804688 311.472656 886.28125 314.59375 C 887.757812 317.71875 889.15625 320.875 890.476562 324.066406 C 891.800781 327.257812 893.042969 330.480469 894.207031 333.730469 C 895.371094 336.984375 896.453125 340.261719 897.457031 343.570312 C 898.460938 346.875 899.378906 350.203125 900.21875 353.554688 C 901.058594 356.90625 901.816406 360.273438 902.488281 363.664062 C 903.164062 367.050781 903.753906 370.453125 904.261719 373.871094 C 904.765625 377.285156 905.191406 380.714844 905.527344 384.152344 C 905.867188 387.589844 906.121094 391.035156 906.289062 394.484375 C 906.460938 397.933594 906.546875 401.386719 906.546875 404.839844 Z M 906.546875 404.839844 " fill-opacity="1" fill-rule="nonzero"/><path fill="#e2e0dd" d="M 682.652344 198.894531 C 799.226562 198.894531 893.726562 293.394531 893.726562 409.96875 C 893.726562 496.410156 841.765625 570.714844 767.371094 603.351562 C 848.546875 573.945312 906.546875 496.164062 906.546875 404.839844 C 906.546875 288.269531 812.042969 193.765625 695.472656 193.765625 C 665.339844 193.765625 636.683594 200.078125 610.753906 211.457031 C 633.195312 203.328125 657.40625 198.894531 682.652344 198.894531 Z M 682.652344 198.894531 " fill-opacity="1" fill-rule="evenodd"/><path fill="#e7286c" d="M 761.472656 494.542969 L 761.472656 397 C 761.472656 378.867188 754.039062 362.367188 742.074219 350.398438 C 730.105469 338.433594 713.605469 331 695.472656 331 C 677.335938 331 660.835938 338.433594 648.871094 350.398438 C 636.902344 362.367188 629.46875 378.867188 629.46875 397 L 629.46875 494.542969 C 629.46875 496.796875 627.640625 498.628906 625.382812 498.628906 L 602.019531 498.628906 C 599.761719 498.628906 597.933594 496.796875 597.933594 494.542969 L 597.933594 397 C 597.933594 370.164062 608.898438 345.777344 626.574219 328.105469 C 644.246094 310.429688 668.632812 299.464844 695.472656 299.464844 C 722.308594 299.464844 746.695312 310.429688 764.367188 328.105469 C 782.042969 345.777344 793.007812 370.164062 793.007812 397 L 793.007812 494.542969 C 793.007812 496.796875 791.179688 498.628906 788.921875 498.628906 L 765.558594 498.628906 C 763.300781 498.628906 761.472656 496.796875 761.472656 494.542969 Z M 761.472656 494.542969 " fill-opacity="1" fill-rule="nonzero"/><path fill="#e7286c" d="M 757.054688 490.453125 L 797.429688 490.453125 C 799.683594 490.453125 801.515625 492.285156 801.515625 494.542969 L 801.515625 526.082031 C 801.515625 528.339844 799.683594 530.167969 797.429688 530.167969 L 757.054688 530.167969 C 754.796875 530.167969 752.96875 528.339844 752.96875 526.082031 L 752.96875 494.542969 C 752.96875 492.285156 754.796875 490.453125 757.054688 490.453125 Z M 757.054688 490.453125 " fill-opacity="1" fill-rule="nonzero"/><path fill="#e7286c" d="M 593.515625 490.453125 L 633.886719 490.453125 C 636.144531 490.453125 637.976562 492.285156 637.976562 494.542969 L 637.976562 526.082031 C 637.976562 528.339844 636.144531 530.167969 633.886719 530.167969 L 593.515625 530.167969 C 591.257812 530.167969 589.429688 528.339844 589.429688 526.082031 L 589.429688 494.542969 C 589.429688 492.285156 591.257812 490.453125 593.515625 490.453125 Z M 593.515625 490.453125 " fill-opacity="1" fill-rule="nonzero"/><path fill="#e7286c" d="M 666.996094 432.695312 L 723.945312 432.695312 C 726.203125 432.695312 728.035156 434.523438 728.035156 436.78125 L 728.035156 478.234375 C 728.035156 487.191406 724.371094 495.335938 718.472656 501.234375 C 712.570312 507.132812 704.429688 510.796875 695.472656 510.796875 C 686.511719 510.796875 678.371094 507.132812 672.472656 501.234375 C 666.570312 495.335938 662.910156 487.191406 662.910156 478.234375 L 662.910156 436.78125 C 662.910156 434.523438 664.738281 432.695312 666.996094 432.695312 Z M 666.996094 432.695312 " fill-opacity="1" fill-rule="nonzero"/><path fill="#e7286c" d="M 695.742188 342.199219 C 705.054688 342.199219 713.488281 345.976562 719.589844 352.078125 C 725.695312 358.183594 729.472656 366.617188 729.472656 375.929688 C 729.472656 378.1875 727.640625 380.015625 725.382812 380.015625 L 666.101562 380.015625 C 663.84375 380.015625 662.011719 378.1875 662.011719 375.929688 C 662.011719 366.617188 665.789062 358.183594 671.894531 352.078125 C 677.996094 345.976562 686.429688 342.199219 695.742188 342.199219 Z M 695.742188 342.199219 " fill-opacity="1" fill-rule="nonzero"/><path fill="#e7286c" d="M 656.703125 390.769531 L 734.238281 390.769531 C 739.054688 390.769531 743 394.710938 743 399.527344 L 743 413.183594 C 743 418 739.058594 421.941406 734.238281 421.941406 L 656.703125 421.941406 C 651.890625 421.941406 647.945312 417.988281 647.945312 413.183594 L 647.945312 399.527344 C 647.945312 394.714844 651.898438 390.769531 656.703125 390.769531 Z M 656.703125 390.769531 " fill-opacity="1" fill-rule="nonzero"/><path fill="#e7286c" d="M 643.855469 300.410156 L 636.804688 305.113281 L 631.957031 312.382812 L 631.957031 312.398438 C 630.703125 314.277344 628.167969 314.785156 626.289062 313.53125 C 625.804688 313.210938 625.414062 312.804688 625.121094 312.34375 L 620.289062 305.101562 L 613.039062 300.265625 L 613.023438 300.265625 C 611.144531 299.015625 610.636719 296.476562 611.886719 294.597656 C 612.265625 294.035156 612.753906 293.597656 613.308594 293.289062 L 620.3125 288.621094 L 625.167969 281.339844 L 625.15625 281.332031 C 626.40625 279.453125 628.945312 278.945312 630.824219 280.199219 C 631.367188 280.558594 631.796875 281.03125 632.101562 281.5625 L 636.808594 288.628906 L 644.082031 293.476562 L 644.089844 293.464844 C 645.964844 294.714844 646.472656 297.253906 645.222656 299.132812 C 644.859375 299.675781 644.390625 300.105469 643.855469 300.410156 Z M 643.855469 300.410156 " fill-opacity="1" fill-rule="nonzero"/><path fill="#e7286c" d="M 602.558594 341.644531 L 593.441406 346.550781 L 588.410156 355.894531 L 588.417969 355.902344 C 587.347656 357.886719 584.867188 358.632812 582.882812 357.5625 C 582.066406 357.125 581.460938 356.449219 581.105469 355.667969 L 576.195312 346.550781 L 566.851562 341.519531 L 566.847656 341.527344 C 564.859375 340.457031 564.117188 337.980469 565.1875 335.992188 C 565.625 335.179688 566.296875 334.574219 567.078125 334.214844 L 576.195312 329.308594 L 581.226562 319.964844 L 581.21875 319.957031 C 582.289062 317.972656 584.769531 317.226562 586.753906 318.296875 C 587.570312 318.734375 588.175781 319.410156 588.53125 320.191406 L 593.441406 329.308594 L 602.785156 334.335938 L 602.789062 334.332031 C 604.777344 335.402344 605.519531 337.878906 604.449219 339.867188 C 604.011719 340.679688 603.335938 341.285156 602.558594 341.644531 Z M 602.558594 341.644531 " fill-opacity="1" fill-rule="nonzero"/><path fill="#e7286c" d="M 797.503906 346.550781 L 788.386719 341.644531 C 787.605469 341.285156 786.929688 340.679688 786.492188 339.867188 C 785.421875 337.878906 786.167969 335.402344 788.152344 334.332031 L 788.160156 334.335938 L 797.503906 329.308594 L 802.410156 320.191406 C 802.769531 319.410156 803.375 318.734375 804.1875 318.296875 C 806.175781 317.226562 808.652344 317.972656 809.722656 319.957031 L 809.714844 319.964844 L 814.746094 329.308594 L 823.863281 334.214844 C 824.644531 334.574219 825.320312 335.179688 825.757812 335.992188 C 826.828125 337.980469 826.082031 340.457031 824.097656 341.527344 L 824.089844 341.519531 L 814.746094 346.550781 L 809.839844 355.667969 C 809.480469 356.449219 808.875 357.125 808.0625 357.5625 C 806.074219 358.632812 803.597656 357.886719 802.527344 355.902344 L 802.53125 355.894531 Z M 797.503906 346.550781 " fill-opacity="1" fill-rule="nonzero"/><path fill="#e7286c" d="M 633.886719 521.992188 C 631.632812 521.992188 629.800781 523.824219 629.800781 526.082031 C 629.800781 528.339844 631.632812 530.167969 633.886719 530.167969 L 757.054688 530.167969 C 759.3125 530.167969 761.140625 528.339844 761.140625 526.082031 C 761.140625 523.824219 759.3125 521.992188 757.054688 521.992188 Z M 633.886719 521.992188 " fill-opacity="1" fill-rule="nonzero"/><path fill="#e7286c" d="M 777.6875 300.410156 L 770.632812 305.113281 L 765.785156 312.382812 L 765.785156 312.398438 C 764.535156 314.277344 761.996094 314.785156 760.121094 313.53125 C 759.636719 313.210938 759.246094 312.804688 758.949219 312.34375 L 754.121094 305.101562 L 746.867188 300.265625 L 746.851562 300.265625 C 744.976562 299.015625 744.46875 296.476562 745.71875 294.597656 C 746.09375 294.035156 746.585938 293.597656 747.140625 293.289062 L 754.140625 288.621094 L 758.996094 281.339844 L 758.984375 281.332031 C 760.238281 279.453125 762.777344 278.945312 764.652344 280.199219 C 765.199219 280.558594 765.625 281.03125 765.929688 281.5625 L 770.640625 288.628906 L 777.914062 293.476562 L 777.917969 293.464844 C 779.796875 294.714844 780.304688 297.253906 779.054688 299.132812 C 778.691406 299.675781 778.21875 300.105469 777.6875 300.410156 Z M 777.6875 300.410156 " fill-opacity="1" fill-rule="nonzero"/></svg>